<?xml version="1.0" encoding="utf-8"?>
<!-- Generator: Adobe Illustrator 23.0.3, SVG Export Plug-In . SVG Version: 6.00 Build 0)  -->
<svg version="1.1" id="Capa_1" xmlns="http://www.w3.org/2000/svg" xmlns:xlink="http://www.w3.org/1999/xlink" x="0px" y="0px"
	 viewBox="0 0 817 820" style="enable-background:new 0 0 817 820;" xml:space="preserve">
<style type="text/css">
	.st0{fill:#F05F61;}
	.st1{fill:none;stroke:#F05F61;stroke-width:30;stroke-miterlimit:10;}
</style>
<g>
	<path class="st0" d="M623,274.1L472.9,424.2l149.9,149.9c22.3,22.3,22.3,58.4,0,80.9c-11.1,11.1-25.7,16.8-40.4,16.8
		s-29.3-5.5-40.4-16.8L392.2,504.9L242.1,655c-11.1,11.1-25.7,16.8-40.4,16.8s-29.3-5.5-40.4-16.8c-22.3-22.3-22.3-58.4,0-80.9
		l149.9-149.9L161.4,274.1c-22.3-22.3-22.3-58.4,0-80.7s58.4-22.3,80.7,0l150.1,150.1l149.9-150.1c22.3-22.3,58.4-22.3,80.7,0
		C645.3,215.7,645.3,251.8,623,274.1z"/>
</g>
<circle class="st1" cx="407.5" cy="410.3" r="389.5"/>
</svg>
